<svg width="185" height="215" viewBox="0 0 185 215" fill="none" xmlns="http://www.w3.org/2000/svg">
<path d="M130.204 157.555C130.204 157.555 146.359 153.775 144.248 130.953C142.137 108.13 132.775 86.21 129.013 78.6934C125.272 71.1768 116.829 58.2642 116.829 58.2642L105.377 66.7676L130.204 157.555Z" fill="#D89660"/>
<path d="M81.1766 173.596C116.411 174.729 137.874 154.342 134.677 126.166C131.479 97.9888 110.602 43.6929 81.1766 41.6772C51.7516 39.6616 27.9273 110.292 27.8438 135.95C27.7602 173.323 81.1766 173.596 81.1766 173.596Z" fill="#FFDEB3"/>
<path d="M134.656 125.557C131.981 102.041 117.017 60.4058 95.0531 46.0654C111.208 64.584 121.908 96.624 124.123 116.15C127.32 144.327 105.858 164.714 70.6229 163.581C70.6229 163.581 49.3064 163.455 33.6326 153.943C47.4256 172.777 81.1557 172.987 81.1557 172.987C116.39 174.121 137.853 153.733 134.656 125.557Z" fill="#F4D0A4"/>
<path d="M77.7283 54.8418C77.7283 55.294 77.817 55.7417 77.9892 56.1595C78.1615 56.5773 78.4139 56.9569 78.7322 57.2766C79.0504 57.5964 79.4283 57.85 79.8441 58.023C80.2599 58.1961 80.7056 58.2852 81.1557 58.2852C81.6057 58.2852 82.0514 58.1961 82.4673 58.023C82.8831 57.85 83.2609 57.5964 83.5792 57.2766C83.8974 56.9569 84.1499 56.5773 84.3221 56.1595C84.4944 55.7417 84.583 55.294 84.583 54.8418C84.583 54.3896 84.4944 53.9418 84.3221 53.5241C84.1499 53.1063 83.8974 52.7267 83.5792 52.407C83.2609 52.0872 82.8831 51.8336 82.4673 51.6605C82.0514 51.4875 81.6057 51.3984 81.1557 51.3984C80.7056 51.3984 80.2599 51.4875 79.8441 51.6605C79.4283 51.8336 79.0504 52.0872 78.7322 52.407C78.4139 52.7267 78.1615 53.1063 77.9892 53.5241C77.817 53.9418 77.7283 54.3896 77.7283 54.8418Z" fill="#004364"/>
<path d="M64.0398 63.3452C64.0398 64.2585 64.4009 65.1343 65.0437 65.78C65.6864 66.4258 66.5582 66.7886 67.4672 66.7886C68.3762 66.7886 69.2479 66.4258 69.8907 65.78C70.5334 65.1343 70.8945 64.2585 70.8945 63.3452C70.8945 62.432 70.5334 61.5562 69.8907 60.9104C69.2479 60.2646 68.3762 59.9019 67.4672 59.9019C66.5582 59.9019 65.6864 60.2646 65.0437 60.9104C64.4009 61.5562 64.0398 62.432 64.0398 63.3452Z" fill="#004364"/>
<path d="M93.5066 59.9019C91.6258 59.9019 90.0793 61.4346 90.0793 63.3452C90.0793 65.2349 91.6049 66.7886 93.5066 66.7886C95.3875 66.7886 96.934 65.2559 96.934 63.3452C96.9131 61.4346 95.3875 59.9019 93.5066 59.9019Z" fill="#004364"/>
<path d="M54.4266 75.271C54.4266 76.1842 54.7877 77.0601 55.4304 77.7058C56.0732 78.3516 56.9449 78.7144 57.8539 78.7144C58.7629 78.7144 59.6347 78.3516 60.2774 77.7058C60.9202 77.0601 61.2813 76.1842 61.2813 75.271C61.2813 74.3578 60.9202 73.4819 60.2774 72.8362C59.6347 72.1904 58.7629 71.8276 57.8539 71.8276C56.9449 71.8276 56.0732 72.1904 55.4304 72.8362C54.7877 73.4819 54.4266 74.3578 54.4266 75.271Z" fill="#004364"/>
<path d="M68.3658 75.271C68.3658 76.1842 68.7269 77.0601 69.3697 77.7058C70.0124 78.3516 70.8842 78.7144 71.7932 78.7144C72.7021 78.7144 73.5739 78.3516 74.2167 77.7058C74.8594 77.0601 75.2205 76.1842 75.2205 75.271C75.2205 74.3578 74.8594 73.4819 74.2167 72.8362C73.5739 72.1904 72.7021 71.8276 71.7932 71.8276C70.8842 71.8276 70.0124 72.1904 69.3697 72.8362C68.7269 73.4819 68.3658 74.3578 68.3658 75.271Z" fill="#004364"/>
</svg>
